<?xml version="1.0" standalone="no"?>
<!DOCTYPE svg PUBLIC "-//W3C//DTD SVG 20010904//EN"
 "http://www.w3.org/TR/2001/REC-SVG-20010904/DTD/svg10.dtd">
<svg version="1.0" xmlns="http://www.w3.org/2000/svg"
 width="200.000000pt" height="200.000000pt" viewBox="0 0 200.000000 200.000000"
 preserveAspectRatio="xMidYMid meet">

<g transform="translate(0.000000,200.000000) scale(0.100000,-0.100000)"
fill="#000000" stroke="none">
<path d="M998 1853 c12 -2 30 -2 40 0 9 3 -1 5 -23 4 -22 0 -30 -2 -17 -4z"/>
<path d="M888 1843 c6 -2 18 -2 25 0 6 3 1 5 -13 5 -14 0 -19 -2 -12 -5z"/>
<path d="M1118 1843 c6 -2 18 -2 25 0 6 3 1 5 -13 5 -14 0 -19 -2 -12 -5z"/>
<path d="M940 1753 c4 -41 9 -49 28 -51 31 -5 52 15 51 47 -1 24 -2 23 -10 -7
-8 -26 -14 -33 -32 -30 -19 3 -22 9 -22 46 0 23 -5 42 -10 42 -7 0 -9 -18 -5
-47z"/>
<path d="M1050 1790 c0 -5 7 -7 16 -3 13 5 15 -2 13 -40 -2 -26 0 -49 4 -53 4
-4 7 14 7 40 0 43 2 48 20 43 11 -3 20 -2 20 3 0 4 -14 10 -31 14 -42 8 -49 8
-49 -4z"/>
<path d="M886 1776 c18 -14 18 -16 2 -32 -20 -20 -28 -16 -31 15 -1 11 -8 21
-15 21 -11 0 -12 -3 -3 -13 6 -8 12 -30 13 -50 2 -22 8 -37 16 -37 9 0 10 5 3
19 -8 15 -6 20 14 29 14 7 25 18 25 25 0 15 -20 37 -34 37 -5 0 -1 -6 10 -14z"/>
<path d="M1153 1756 c-2 -17 -4 -40 -5 -51 -2 -16 3 -20 27 -22 20 -1 23 0 8
4 -22 4 -34 43 -14 43 5 0 7 9 4 19 -3 13 1 20 14 23 14 3 13 5 -7 9 -22 5
-25 2 -27 -25z"/>
<path d="M775 1730 c-4 -22 -10 -40 -14 -40 -4 0 -18 11 -31 25 -35 37 -40 31
-22 -25 10 -27 20 -50 25 -50 4 0 0 16 -8 36 -21 50 -19 52 13 21 31 -29 42
-27 42 9 0 38 19 37 26 -1 3 -20 9 -34 12 -31 7 8 -19 96 -28 96 -5 0 -11 -18
-15 -40z"/>
<path d="M1239 1715 c-17 -47 -15 -57 7 -27 11 16 13 15 23 -10 12 -33 22 -37
14 -7 -4 14 0 25 11 31 22 12 20 35 -3 48 -31 16 -35 13 -52 -35z m51 25 c13
-8 13 -11 0 -24 -18 -19 -43 -6 -34 17 7 19 13 21 34 7z"/>
<path d="M602 1688 c-33 -33 6 -96 52 -84 52 13 41 96 -12 96 -16 0 -33 -5
-40 -12z m72 -20 c14 -23 -3 -52 -32 -56 -29 -4 -51 40 -32 63 16 20 49 16 64
-7z"/>
<path d="M1403 1641 c-23 -16 -40 -31 -36 -34 3 -4 12 -2 19 4 21 17 56 -7 49
-34 -5 -17 -4 -19 4 -7 6 8 10 26 10 40 0 14 -3 20 -5 13 -3 -7 -12 -9 -20 -6
-13 5 -12 8 2 24 14 15 19 17 26 7 6 -10 8 -8 8 5 0 22 -7 21 -57 -12z"/>
<path d="M1560 1656 c0 -2 8 -10 18 -17 15 -13 16 -12 3 4 -13 16 -21 21 -21
13z"/>
<path d="M526 1637 c-22 -16 -18 -65 5 -80 21 -13 65 -1 73 20 6 16 6 16 -12
0 -33 -30 -72 -15 -72 29 0 23 24 39 42 27 7 -3 8 -1 4 5 -9 15 -18 15 -40 -1z"/>
<path d="M1491 1580 c-17 -21 -27 -41 -22 -44 5 -3 11 1 15 9 4 10 14 13 34 9
33 -7 46 6 37 35 -10 34 -32 31 -64 -9z m57 -3 c2 -11 -3 -17 -16 -17 -26 0
-34 11 -20 27 14 17 32 12 36 -10z"/>
<path d="M1650 1566 c0 -2 8 -10 18 -17 15 -13 16 -12 3 4 -13 16 -21 21 -21
13z"/>
<path d="M1587 1547 c-3 -9 -20 -25 -37 -35 -16 -10 -27 -22 -23 -25 3 -4 12
-2 19 4 9 7 18 7 32 -2 23 -14 52 -6 52 15 0 7 -8 24 -18 36 -16 20 -19 21
-25 7z m27 -23 c7 -19 -1 -34 -19 -34 -21 0 -28 19 -15 35 16 19 26 19 34 -1z"/>
<path d="M397 1519 c-18 -20 -17 -22 20 -54 21 -18 42 -30 47 -27 5 3 0 9 -12
13 -25 9 -27 19 -9 39 10 12 9 12 -6 0 -28 -21 -46 3 -22 30 10 11 14 20 9 20
-5 0 -18 -9 -27 -21z"/>
<path d="M1650 1482 c0 -5 -16 -20 -35 -34 -33 -23 -34 -25 -19 -46 8 -12 20
-22 25 -22 6 0 3 7 -5 16 -17 16 -21 34 -8 34 17 1 64 48 53 54 -6 4 -11 3
-11 -2z"/>
<path d="M332 1438 c-37 -37 15 -102 63 -80 32 15 35 66 6 82 -26 13 -54 13
-69 -2z m66 -10 c32 -32 -2 -79 -43 -60 -39 18 -27 72 15 72 9 0 21 -5 28 -12z"/>
<path d="M1673 1383 c-24 -14 -43 -29 -43 -34 0 -4 16 2 35 16 20 13 41 26 48
28 7 2 10 7 7 10 -3 3 -24 -6 -47 -20z"/>
<path d="M1680 1340 c-11 -11 -20 -25 -20 -31 0 -17 20 -49 31 -49 6 0 3 7 -5
16 -23 22 -20 41 10 61 26 16 27 16 45 -6 10 -13 16 -28 12 -34 -3 -6 -1 -7 5
-3 9 5 9 13 1 29 -22 42 -48 48 -79 17z"/>
<path d="M250 1284 c0 -3 10 -14 23 -25 l22 -18 -32 -1 c-18 0 -33 -3 -33 -7
0 -5 25 -8 55 -8 30 0 55 3 55 8 0 4 -8 7 -19 7 -10 0 -26 11 -35 25 -15 23
-36 34 -36 19z"/>
<path d="M500 1040 l0 -250 165 0 165 0 0 250 0 250 -165 0 -165 0 0 -250z
m278 178 c7 -7 12 -31 12 -55 0 -36 -3 -43 -20 -43 -16 0 -20 7 -20 30 l0 30
-90 0 -90 0 0 -60 0 -60 99 0 c72 0 102 -4 110 -14 8 -9 11 -47 9 -107 l-3
-94 -125 0 -125 0 0 50 c0 38 4 50 15 50 9 0 16 -11 18 -27 3 -28 4 -28 83
-28 l80 0 -3 58 -3 57 -95 5 -95 5 -3 94 c-2 60 1 98 9 107 15 18 219 20 237
2z"/>
<path d="M850 1040 l0 -250 165 0 165 0 0 250 0 250 -165 0 -165 0 0 -250z
m295 130 c0 -43 -1 -45 -32 -48 -31 -3 -33 -1 -33 27 l0 31 -76 0 -76 0 6 -67
c3 -38 8 -103 12 -145 l6 -78 79 0 78 0 3 48 c2 34 7 47 18 47 16 0 26 -79 15
-122 -5 -22 -8 -23 -129 -23 -104 0 -125 3 -130 16 -8 21 -8 328 0 348 5 14
24 16 133 14 l126 -3 0 -45z"/>
<path d="M1210 1040 l0 -250 165 0 165 0 0 250 0 250 -165 0 -165 0 0 -250z
m280 95 c3 -49 11 -100 18 -113 8 -14 12 -50 10 -100 l-3 -77 -32 -3 -33 -3 0
80 0 81 -75 0 -74 0 -3 -77 -3 -78 -32 -3 -33 -3 0 88 c1 57 6 97 15 113 9 15
14 54 15 101 0 42 3 79 7 83 4 3 54 5 112 4 l106 -3 5 -90z"/>
<path d="M1300 1115 l0 -65 75 0 75 0 0 65 0 65 -75 0 -75 0 0 -65z"/>
<path d="M1690 1232 c0 -4 21 -6 48 -4 l47 4 -29 -31 c-16 -16 -33 -28 -38
-25 -4 3 -8 0 -8 -5 0 -17 9 -13 51 20 22 17 37 35 33 40 -6 11 -104 12 -104
1z"/>
<path d="M211 1133 c1 -22 3 -24 6 -7 4 19 8 21 37 14 19 -4 39 -10 45 -14 6
-4 11 -3 11 2 0 8 -72 32 -94 32 -3 0 -5 -12 -5 -27z"/>
<path d="M1807 1140 c4 -16 -1 -20 -36 -26 -23 -4 -41 -10 -41 -15 0 -4 15 -3
32 2 51 14 61 12 55 -12 -4 -13 -2 -18 3 -13 11 11 1 84 -10 84 -5 0 -6 -9 -3
-20z"/>
<path d="M152 1070 c0 -19 2 -27 5 -17 2 9 2 25 0 35 -3 9 -5 1 -5 -18z"/>
<path d="M200 1075 c0 -8 2 -15 4 -15 2 0 6 7 10 15 3 8 1 15 -4 15 -6 0 -10
-7 -10 -15z"/>
<path d="M290 1061 c0 -35 -30 -35 -43 -1 -4 11 -6 11 -6 -4 -1 -13 -6 -17
-20 -13 -11 3 -22 0 -24 -7 -3 -7 14 -12 49 -13 53 -1 54 -1 54 28 0 16 -2 29
-5 29 -3 0 -5 -9 -5 -19z"/>
<path d="M1873 990 c0 -41 2 -58 4 -37 2 20 2 54 0 75 -2 20 -4 3 -4 -38z"/>
<path d="M1737 1038 c2 -5 24 -8 49 -8 24 0 44 3 44 8 0 4 -22 7 -49 7 -27 0
-47 -3 -44 -7z"/>
<path d="M190 985 c0 -5 23 -10 50 -10 65 0 65 12 0 17 -29 2 -50 -1 -50 -7z"/>
<path d="M1747 993 c-4 -3 -7 -11 -7 -17 0 -6 5 -5 12 2 20 20 66 15 73 -8 14
-43 -51 -70 -75 -32 -7 10 -10 11 -7 3 9 -38 80 -39 92 -1 10 33 -12 60 -49
60 -18 0 -36 -3 -39 -7z"/>
<path d="M284 937 c14 -44 -39 -76 -74 -44 -12 10 -12 9 -1 -5 17 -22 54 -23
75 -2 19 18 20 33 5 54 -9 12 -10 12 -5 -3z"/>
<path d="M152 910 c0 -19 2 -27 5 -17 2 9 2 25 0 35 -3 9 -5 1 -5 -18z"/>
<path d="M341 924 c0 -11 3 -14 6 -6 3 7 2 16 -1 19 -3 4 -6 -2 -5 -13z"/>
<path d="M1730 882 c0 -4 14 -9 32 -10 18 -2 34 -4 36 -6 2 -2 -15 -15 -38
-29 -32 -19 -38 -26 -25 -31 9 -3 26 -6 38 -5 20 1 20 2 -3 8 -24 7 -24 8 18
31 48 27 52 34 17 36 -14 1 -36 5 -50 8 -14 4 -25 3 -25 -2z"/>
<path d="M222 838 c-15 -15 -15 -51 0 -66 24 -24 88 -11 88 17 -1 14 -2 14
-11 -1 -15 -26 -66 -24 -74 2 -14 43 51 70 75 33 11 -17 11 -17 6 0 -3 10 -6
21 -6 23 0 10 -67 3 -78 -8z"/>
<path d="M1805 801 c-3 -5 -1 -12 5 -16 5 -3 10 1 10 9 0 18 -6 21 -15 7z"/>
<path d="M1718 773 c7 -3 16 -2 19 1 4 3 -2 6 -13 5 -11 0 -14 -3 -6 -6z"/>
<path d="M1700 747 c0 -25 28 -32 49 -13 32 29 60 9 29 -22 -8 -8 -8 -12 -1
-12 12 0 23 23 23 46 0 20 -40 17 -56 -3 -13 -17 -15 -17 -29 1 -13 18 -15 18
-15 3z"/>
<path d="M287 743 c-4 -3 -7 -17 -7 -30 0 -14 -6 -23 -16 -23 -11 0 -15 6 -11
20 3 11 1 20 -5 20 -20 0 -3 -45 19 -48 17 -3 22 2 25 25 4 34 33 39 32 5 0
-14 3 -19 9 -13 14 14 -2 51 -22 51 -10 0 -21 -3 -24 -7z"/>
<path d="M720 705 c0 -28 5 -31 24 -13 11 10 11 15 0 25 -18 19 -24 16 -24
-12z"/>
<path d="M790 719 c0 -6 9 -13 20 -16 11 -3 20 -9 20 -14 0 -5 5 -9 10 -9 18
0 10 22 -10 27 -11 3 -20 9 -20 14 0 5 -4 9 -10 9 -5 0 -10 -5 -10 -11z"/>
<path d="M890 705 c0 -14 5 -25 10 -25 6 0 10 11 10 25 0 14 -4 25 -10 25 -5
0 -10 -11 -10 -25z"/>
<path d="M950 705 c0 -14 5 -25 10 -25 6 0 10 11 10 25 0 14 -4 25 -10 25 -5
0 -10 -11 -10 -25z"/>
<path d="M990 705 c0 -14 5 -25 10 -25 6 0 10 11 10 25 0 14 -4 25 -10 25 -5
0 -10 -11 -10 -25z"/>
<path d="M1111 703 c-13 -13 -20 -23 -14 -23 11 0 49 38 42 43 -2 2 -15 -7
-28 -20z"/>
<path d="M1162 705 c0 -16 2 -22 5 -12 2 9 2 23 0 30 -3 6 -5 -1 -5 -18z"/>
<path d="M1200 705 c0 -14 5 -25 10 -25 6 0 10 11 10 25 0 14 -4 25 -10 25 -5
0 -10 -11 -10 -25z"/>
<path d="M1240 705 c0 -14 5 -25 10 -25 6 0 10 11 10 25 0 14 -4 25 -10 25 -5
0 -10 -11 -10 -25z"/>
<path d="M1280 705 c0 -14 5 -25 10 -25 6 0 10 5 10 10 0 14 28 12 32 -2 3 -9
6 -9 12 0 4 7 -3 14 -19 18 -14 3 -25 10 -25 15 0 5 -4 9 -10 9 -5 0 -10 -11
-10 -25z"/>
<path d="M1664 606 c-15 -17 -6 -36 19 -36 11 0 17 3 14 7 -4 3 -1 13 5 22 7
9 8 13 4 9 -5 -4 -14 -4 -20 1 -7 5 -15 4 -22 -3z"/>
<path d="M364 598 c-15 -23 -12 -37 7 -35 24 2 32 22 14 37 -10 8 -15 8 -21
-2z"/>
<path d="M1541 506 c-9 -11 -5 -20 19 -44 16 -17 32 -27 35 -22 3 4 -2 11 -11
14 -13 5 -14 9 -4 21 15 18 6 45 -13 45 -8 0 -20 -6 -26 -14z m39 -9 c0 -8 -3
-17 -7 -20 -9 -9 -34 13 -27 24 8 14 34 11 34 -4z"/>
<path d="M433 481 c-17 -16 -29 -32 -26 -35 3 -3 15 6 26 21 19 24 21 25 28 7
6 -16 8 -14 8 9 1 15 0 27 -1 27 -2 0 -17 -14 -35 -29z"/>
<path d="M1699 473 c-13 -16 -12 -17 4 -4 16 13 21 21 13 21 -2 0 -10 -8 -17
-17z"/>
<path d="M1608 473 c7 -3 16 -2 19 1 4 3 -2 6 -13 5 -11 0 -14 -3 -6 -6z"/>
<path d="M490 449 c-7 -12 -18 -18 -26 -15 -8 3 -14 -1 -14 -9 0 -23 13 -18
45 15 16 17 24 30 17 30 -6 0 -16 -9 -22 -21z"/>
<path d="M1497 463 c-4 -3 2 -17 14 -29 23 -24 20 -54 -5 -54 -8 0 -23 11 -34
25 -11 13 -22 22 -25 19 -10 -11 53 -56 68 -50 26 10 29 36 6 60 -12 12 -18
26 -14 29 3 4 4 7 1 7 -2 0 -8 -3 -11 -7z"/>
<path d="M330 456 c0 -2 8 -10 18 -17 15 -13 16 -12 3 4 -13 16 -21 21 -21 13z"/>
<path d="M540 432 c0 -5 -11 -21 -24 -35 -14 -15 -20 -29 -15 -32 5 -4 9 -2 9
3 0 5 11 21 24 35 14 15 20 29 15 32 -5 4 -9 2 -9 -3z"/>
<path d="M1654 418 l-19 -23 23 19 c21 18 27 26 19 26 -2 0 -12 -10 -23 -22z"/>
<path d="M588 397 c12 -14 11 -21 -8 -47 -12 -16 -18 -30 -13 -30 4 0 16 14
26 31 14 26 20 29 32 19 8 -7 15 -8 15 -3 0 5 -15 17 -32 28 -27 15 -31 16
-20 2z"/>
<path d="M1393 373 c13 -3 17 -11 13 -25 -3 -15 -2 -18 6 -10 15 15 2 42 -19
41 -17 -1 -17 -2 0 -6z"/>
<path d="M1574 338 l-19 -23 23 19 c21 18 27 26 19 26 -2 0 -12 -10 -23 -22z"/>
<path d="M693 305 c-14 -43 -9 -45 11 -3 18 36 19 38 8 38 -5 0 -13 -16 -19
-35z"/>
<path d="M1381 320 c14 -31 19 -36 19 -24 0 6 -7 19 -16 30 -14 18 -14 18 -3
-6z"/>
<path d="M1263 323 c-10 -4 -10 -10 2 -26 8 -12 15 -29 15 -39 0 -10 5 -18 10
-18 14 0 13 6 -6 42 -13 25 -14 32 -2 39 14 9 1 11 -19 2z"/>
<path d="M1316 323 c6 -4 14 -15 17 -23 5 -11 6 -9 4 4 -1 11 -9 21 -17 23
-10 3 -11 2 -4 -4z"/>
<path d="M755 273 c-16 -21 -23 -33 -16 -27 17 15 54 5 47 -12 -3 -8 -1 -14 4
-14 6 0 10 15 10 33 0 22 -3 28 -9 18 -5 -7 -14 -12 -21 -9 -9 3 -8 9 5 21 9
10 15 20 13 23 -3 2 -18 -12 -33 -33z"/>
<path d="M1184 269 c3 -17 6 -38 6 -46 0 -8 4 -12 10 -8 6 4 6 15 -1 32 -5 15
-8 32 -5 40 3 7 0 13 -6 13 -6 0 -8 -11 -4 -31z"/>
<path d="M860 269 c7 -11 14 -19 16 -16 7 7 -7 37 -17 37 -6 0 -5 -9 1 -21z"/>
<path d="M1129 286 c-7 -7 -1 -77 6 -85 9 -8 10 4 5 47 -3 24 -8 41 -11 38z"/>
<path d="M920 255 c-12 -13 -27 -22 -31 -19 -5 3 -6 -2 -2 -12 5 -14 8 -13 25
7 l19 24 -4 -32 c-2 -18 0 -33 4 -33 6 0 19 80 14 87 -1 2 -12 -8 -25 -22z"/>
<path d="M1068 244 c3 -21 8 -31 12 -24 8 13 1 60 -9 60 -4 0 -5 -16 -3 -36z"/>
<path d="M987 263 c-12 -12 -7 -22 13 -28 11 -3 20 -13 20 -22 0 -10 -6 -14
-20 -10 -11 3 -20 1 -20 -4 0 -5 9 -9 20 -9 29 0 38 30 14 47 -10 8 -18 19
-16 24 2 11 -2 12 -11 2z"/>
<path d="M852 225 c0 -16 2 -22 5 -12 2 9 2 23 0 30 -3 6 -5 -1 -5 -18z"/>
<path d="M1375 210 c-3 -6 1 -7 9 -4 18 7 21 14 7 14 -6 0 -13 -4 -16 -10z"/>
<path d="M888 133 c7 -3 16 -2 19 1 4 3 -2 6 -13 5 -11 0 -14 -3 -6 -6z"/>
<path d="M1008 123 c7 -3 16 -2 19 1 4 3 -2 6 -13 5 -11 0 -14 -3 -6 -6z"/>
</g>
</svg>
